<svg id="Layer_1" data-name="Layer 1" xmlns="http://www.w3.org/2000/svg" viewBox="0 0 237.69598 177.3183">
  <title>Kali</title>
  <g>
    <path d="M220.56,307.12361a4.006,4.006,0,0,0,.52549.0785c1.75851.0358,3.5176.0477,5.2756.0985q4.763.13755,9.5248.3129c2.1166.07749,4.2338.1563,6.3477.28449,3.6096.21911,7.2191.44811,10.8243.72841,2.9676.2307,5.934.4968,8.8917.8287,3.712.4166,7.4175.8947,11.1206,1.386,4.0996.54389,8.1736,1.2504,12.229,2.0606a129.55508,129.55508,0,0,1,22.6372,6.3718c2.095.8334,4.1253,1.82949,6.18361,2.7546a4.94,4.94,0,0,1,.43629.2476c-.24729,1.17-.5268,2.2936-.7176,3.432a26.19292,26.19292,0,0,0,.253,10.76929,17.71376,17.71376,0,0,0,10.1152,12.14391,26.62375,26.62375,0,0,0,5.8339,1.9753,4.24361,4.24361,0,0,0,.888.098c2.7798.0072,5.5599.02079,8.3395-.004a12.70329,12.70329,0,0,1,3.1994.365,104.69386,104.69386,0,0,1,13.0634,3.9675c1.4492.5674,2.85291,1.2509,4.2775,1.8812.1593.0705.3193.1397.5477.2395v-2.2538a14.65619,14.65619,0,0,0,7.9112,5.5823c-.1556-1.0832-.2958-2.05891-.436-3.0346l.0734-.0658c.1247.1287.2535.2537.3735.3866a42.33532,42.33532,0,0,0,4.5823,4.4852c.9107.7435,1.89831,1.394,2.863,2.0695a7.67406,7.67406,0,0,0,.8965.4558c-.1113-1.4542-.4763-2.7718-.6383-4.2628.4585.4834.8178.8764,1.192,1.2546,1.8842,1.9041,3.7803,3.7965,5.6547,5.7101a2.54488,2.54488,0,0,0,2.4316.9137,20.14658,20.14658,0,0,1,2.6302-.151c.1982-.0091.3972-.0013.6118-.0013.9753,1.4749,1.9324,2.9502,2.9189,4.4055.8741,1.2895,1.7832,2.5553,2.67191,3.8349a8.79755,8.79755,0,0,1,.57889.90869c.47.89441.37311,1.20921-.5294,1.69351a2.07215,2.07215,0,0,0,.2346.3767,20.93391,20.93391,0,0,0,8.6601,5.6231c.9659.3094,1.9722.4924,2.9984.7428-.1135.09-.23959.1954-.371.2937-1.58459,1.18519-3.1794,2.3571-4.7493,3.5614a16.98169,16.98169,0,0,0-1.2999,1.2313c-.3277-.3464-.68539-.7337-1.053-1.11151a41.56312,41.56312,0,0,0-10.4072-8.01959c-1.0068-.5288-2.06819-.9527-3.0917-1.4512a14.40536,14.40536,0,0,1-3.6074-2.3428,7.72055,7.72055,0,0,1-.543-.559,3.28441,3.28441,0,0,1-.8659-2.237c.0002-.93741-.065-1.8749-.1025-2.834a2.57329,2.57329,0,0,0-.2965-.1956c-7.87619-3.7761-15.84719-7.3343-24.0338-10.3917a99.97631,99.97631,0,0,0-10.9593-3.4797,23.66537,23.66537,0,0,0-4.5644-.6253c-2.075-.0994-4.1544-.1357-6.2321-.1426a22.05712,22.05712,0,0,0-11.3027,3.1138,28.70991,28.70991,0,0,0-11.1537,11.2002,27.65814,27.65814,0,0,0-3.1508,9.7531c-.1513,1.16739-.247,2.3441-.3161,3.5196a19.5612,19.5612,0,0,0,.4414,4.7031,29.18351,29.18351,0,0,0,3.96331,10.4111,24.5265,24.5265,0,0,0,13.03159,10.253,32.44542,32.44542,0,0,0,6.7042,1.5351c.554.0698,1.1153.0867,1.6739.1136,2.1156.1017,4.2316.1958,6.34731.2958q3.83189.1812,7.66339.3689c2.0351.1029,4.0731.177,6.1034.34219,2.1894.17811,4.3793.38971,6.5545.69091,2.8085.3889,5.6162.8105,8.4005,1.34209a104.94754,104.94754,0,0,1,24.5338,7.66871,66.45118,66.45118,0,0,1,15.4352,9.7042,46.70662,46.70662,0,0,1,11.5978,14.6019,43.54656,43.54656,0,0,1,3.3555,9.0897,3.31211,3.31211,0,0,1,.0696.3514,3.03874,3.03874,0,0,1,.002.32609,1.61913,1.61913,0,0,1-.18569-.26009,49.52613,49.52613,0,0,0-9.35541-14.9027,56.38762,56.38762,0,0,0-16.2999-12.5593,66.56046,66.56046,0,0,0-19.2558-6.4158,2.34785,2.34785,0,0,0-.8046-.0327,2.0592,2.0592,0,0,0,.2559.2625,93.10859,93.10859,0,0,1,9.58381,7.9736,89.08388,89.08388,0,0,1,18.14019,23.6282,65.19416,65.19416,0,0,1,6.4879,19.0422,54.46783,54.46783,0,0,1,.784,7.2658c.0426,1.1779.076,2.3561.04,3.5422-.1568-.8685-.3085-1.738-.4712-2.6055a90.07084,90.07084,0,0,0-2.8202-10.8986,96.11145,96.11145,0,0,0-5.4311-13.4334,76.75359,76.75359,0,0,0-13.3615-19.3046,60.04661,60.04661,0,0,0-30.3134-17.2346,61.29168,61.29168,0,0,0-10.2999-1.54621c-2.1336-.12249-4.2751-.10819-6.4131-.14909-2.3181-.0443-4.6363-.07691-6.9543-.1233-1.57839-.0315-3.1575-.0533-4.7343-.1238a33.52626,33.52626,0,0,1-6.2143-.92981,36.89235,36.89235,0,0,1-10.5479-4.17179,29.113,29.113,0,0,1-13.698-18.4663,32.97288,32.97288,0,0,1-1.0508-9.3792,43.23076,43.23076,0,0,1,3.777-17.0245,29.30476,29.30476,0,0,1,10.1528-12.12721,29.88133,29.88133,0,0,1,4.1185-2.32839c.17761-.0833.3519-.1734.5682-.2802-.0767-.1923-.1328-.3572-.2065-.5139-2.3914-5.083-4.6038-10.2409-6.4797-15.5387a65.09089,65.09089,0,0,1-2.6589-9.2647c-.145-.7442-.2597-1.4963-.3424-2.2499a.88167.88167,0,0,0-.5862-.8051c-1.6923-.7156-3.3583-1.4979-5.0714-2.1585a142.63287,142.63287,0,0,0-16.7768-5.1417q-9.47954-2.3706-19.1163-3.993-6.26325-1.05465-12.5469-1.9866c-3.2409-.4759-6.4947-.8689-9.748-1.2554q-5.2074-.61875-10.425-1.1518c-2.3847-.2472-4.77449-.44611-7.1633-.6515q-4.06035-.34935-8.1233-.6688c-1.8924-.1464-3.7867-.2691-5.6811-.38681q-4.78575-.29713-9.57279-.57159c-1.41651-.0802-2.83521-.1217-4.25261-.188-1.45639-.0681-2.91229-.1451-4.36789-.265,1.80419-.0561,3.60809-.1202,5.4125-.1661,2.31719-.059,4.63489-.102,6.95219-.1569a2.41623,2.41623,0,0,0,.40481-.0778Zm171.49939,70.459c.0052-.11361.0233-.1627.0062-.1862-.77459-1.0617-1.5479-2.12441-2.3355-3.1765a2.102,2.102,0,0,0-.4626-.3322,4.24,4.24,0,0,0-.1123,1.5986.28084.28084,0,0,0,.09081.1513A6.75838,6.75838,0,0,0,392.05939,377.58261Z" transform="translate(-186.12 -307.12361)"/>
    <path d="M186.12,338.92361c2.305-.4895,4.6033-1.0135,6.9164-1.4612,4.4116-.854,8.82489-1.70341,13.25029-2.4817,4.0719-.7162,8.1568-1.3618,12.2434-1.9904,2.98091-.4585,5.9721-.8526,8.962-1.25q4.0989-.54465,8.2053-1.0319c1.9837-.237,3.9714-.4411,5.9585-.6481q3.3381-.3477,6.6786-.6716c1.5514-.1482,3.1049-.2762,4.6584-.4004,2.4296-.1942,4.8595-.3865,7.2905-.5622,1.49461-.10811,2.9911-.1929,4.4875-.2724,3.0325-.1609,6.0649-.3272,9.0986-.4601,1.9964-.0875,3.9949-.13,5.9928-.1753q3.3867-.07665,6.774-.12c2.6385-.031,5.2773-.0625,7.9158-.0532,2.2181.0077,4.4365.0581,6.654.1183,2.19691.05959,4.39291.1529,6.5891.237.358.0137.715.056,1.1494.0914.365,1.4509.7327,2.9119,1.1159,4.43519-.6548-.029-1.2483-.04939-1.841-.08259-1.1967-.0671-2.3923-.1585-3.5896-.2087q-3.59355-.1506-7.1885-.26571c-1.5377-.05119-3.0759-.10249-4.6143-.11749q-7.67655-.075-15.3535-.1183c-2.2791-.0103-4.55859.0275-6.83759.0606-1.71841.0249-3.43651.0681-5.15431.1195-2.3766.0711-4.7532.1453-7.1289.2409q-3.92265.1578-7.8435.3595-4.0401.2118-8.0775.4745c-2.771.1816-5.5417.3727-8.3092.5999-3.6238.2973-7.24659.6106-10.8655.9607-3.3804.3271-6.7596.674-10.1313,1.0794-4.7004.5651-9.3989,1.15279-14.08779,1.8057-4.0548.5645-8.095,1.2345-12.1423,1.8532-.2554.039-.517.03789-.7757.0555Z" transform="translate(-186.12 -307.12361)"/>
    <path d="M310.63689,335.37371c.4898,1.5946.9683,3.1524,1.4653,4.7707-.2428.0184-.4151.0387-.5879.0434-2.13729.05819-4.2784.0538-6.411.18619-2.5706.15951-5.1362.41321-7.7001.66471-3.6995.3628-7.3695.94429-11.0264,1.6012-5.92,1.0634-11.7774,2.4096-17.5829,3.9803a280.96707,280.96707,0,0,0-29.3176,9.7629q-11.6925,4.5915-22.9976,10.0666c-3.6989,1.8015-7.3371,3.7276-11.0026,5.5976-.2203.1124-.4392.2273-.6588.341l-.0641-.1154c.1563-.10891.3077-.2256.4696-.3254q8.75582-5.39865,17.9169-10.0768a266.61132,266.61132,0,0,1,35.2829-14.9484,250.302,250.302,0,0,1,29.9003-8.2387c4.3614-.9087,8.7404-1.7189,13.152-2.3343,2.7292-.3808,5.473-.6572,8.2113-.9711A8.8714,8.8714,0,0,1,310.63689,335.37371Z" transform="translate(-186.12 -307.12361)"/>
  </g>
</svg>
